<?xml version="1.0" encoding="utf-8"?><!-- Uploaded to: SVG Repo, www.svgrepo.com, Generator: SVG Repo Mixer Tools -->
<svg fill="#000000" width="800px" height="800px" viewBox="0 0 24 24" id="medical-receipt-2" data-name="Line Color" xmlns="http://www.w3.org/2000/svg" class="icon line-color"><path id="secondary" d="M10,12V8m2,2H8m8.73,2.73a2.52,2.52,0,0,1,3.54,0h0a2.52,2.52,0,0,1,0,3.54l-4,4a2.52,2.52,0,0,1-3.54,0h0a2.52,2.52,0,0,1,0-3.54Zm1.39,5.39-3.24-3.24" style="fill: none; stroke: rgb(44, 169, 188); stroke-linecap: round; stroke-linejoin: round; stroke-width: 2;"></path><path id="primary" d="M8,21H4a1,1,0,0,1-1-1V4A1,1,0,0,1,4,3H16a1,1,0,0,1,1,1V8" style="fill: none; stroke: rgb(0, 0, 0); stroke-linecap: round; stroke-linejoin: round; stroke-width: 2;"></path></svg>